<mxfile host="app.diagrams.net" agent="Mozilla/5.0 (Windows NT 10.0; Win64; x64) AppleWebKit/537.36 (KHTML, like Gecko) Chrome/131.0.0.0 Safari/537.36" version="25.0.3" pages="3">
  <diagram name="1-100" id="1vXfzWntO8NUkoPhB_d0">
    <mxGraphModel dx="2049" dy="1190" grid="1" gridSize="10" guides="1" tooltips="1" connect="1" arrows="1" fold="1" page="1" pageScale="1" pageWidth="1169" pageHeight="827" math="0" shadow="0">
      <root>
        <mxCell id="0" />
        <mxCell id="1" parent="0" />
        <mxCell id="S0dY9rQtX5_g3LYnCzjn-10" style="edgeStyle=orthogonalEdgeStyle;rounded=0;orthogonalLoop=1;jettySize=auto;html=1;" edge="1" parent="1" source="S0dY9rQtX5_g3LYnCzjn-1" target="S0dY9rQtX5_g3LYnCzjn-3">
          <mxGeometry relative="1" as="geometry" />
        </mxCell>
        <mxCell id="S0dY9rQtX5_g3LYnCzjn-1" value="INICIO" style="strokeWidth=2;html=1;shape=mxgraph.flowchart.start_1;whiteSpace=wrap;" vertex="1" parent="1">
          <mxGeometry x="532" y="20" width="106" height="40" as="geometry" />
        </mxCell>
        <mxCell id="S0dY9rQtX5_g3LYnCzjn-2" value="FIM" style="strokeWidth=2;html=1;shape=mxgraph.flowchart.start_1;whiteSpace=wrap;" vertex="1" parent="1">
          <mxGeometry x="532" y="570" width="106" height="40" as="geometry" />
        </mxCell>
        <mxCell id="S0dY9rQtX5_g3LYnCzjn-11" style="edgeStyle=orthogonalEdgeStyle;rounded=0;orthogonalLoop=1;jettySize=auto;html=1;" edge="1" parent="1" source="S0dY9rQtX5_g3LYnCzjn-3" target="S0dY9rQtX5_g3LYnCzjn-4">
          <mxGeometry relative="1" as="geometry" />
        </mxCell>
        <mxCell id="S0dY9rQtX5_g3LYnCzjn-3" value="NUM" style="shape=parallelogram;html=1;strokeWidth=2;perimeter=parallelogramPerimeter;whiteSpace=wrap;rounded=1;arcSize=12;size=0.23;" vertex="1" parent="1">
          <mxGeometry x="522" y="90" width="125" height="40" as="geometry" />
        </mxCell>
        <mxCell id="S0dY9rQtX5_g3LYnCzjn-12" style="edgeStyle=orthogonalEdgeStyle;rounded=0;orthogonalLoop=1;jettySize=auto;html=1;" edge="1" parent="1" source="S0dY9rQtX5_g3LYnCzjn-4" target="S0dY9rQtX5_g3LYnCzjn-5">
          <mxGeometry relative="1" as="geometry" />
        </mxCell>
        <mxCell id="S0dY9rQtX5_g3LYnCzjn-4" value="CONTADOR = 1" style="rounded=1;whiteSpace=wrap;html=1;absoluteArcSize=1;arcSize=14;strokeWidth=2;" vertex="1" parent="1">
          <mxGeometry x="515" y="160" width="140" height="50" as="geometry" />
        </mxCell>
        <mxCell id="S0dY9rQtX5_g3LYnCzjn-13" style="edgeStyle=orthogonalEdgeStyle;rounded=0;orthogonalLoop=1;jettySize=auto;html=1;" edge="1" parent="1" source="S0dY9rQtX5_g3LYnCzjn-5" target="S0dY9rQtX5_g3LYnCzjn-6">
          <mxGeometry relative="1" as="geometry" />
        </mxCell>
        <mxCell id="S0dY9rQtX5_g3LYnCzjn-16" value="V" style="edgeLabel;html=1;align=center;verticalAlign=middle;resizable=0;points=[];" vertex="1" connectable="0" parent="S0dY9rQtX5_g3LYnCzjn-13">
          <mxGeometry x="-0.7948" y="2" relative="1" as="geometry">
            <mxPoint x="-2" y="5" as="offset" />
          </mxGeometry>
        </mxCell>
        <mxCell id="S0dY9rQtX5_g3LYnCzjn-5" value="CONTADOR &amp;lt;= 100" style="strokeWidth=2;html=1;shape=mxgraph.flowchart.decision;whiteSpace=wrap;" vertex="1" parent="1">
          <mxGeometry x="510" y="230" width="150" height="80" as="geometry" />
        </mxCell>
        <mxCell id="S0dY9rQtX5_g3LYnCzjn-6" value="RES = NUM * CONTADOR" style="rounded=1;whiteSpace=wrap;html=1;absoluteArcSize=1;arcSize=14;strokeWidth=2;" vertex="1" parent="1">
          <mxGeometry x="492" y="340" width="186" height="50" as="geometry" />
        </mxCell>
        <mxCell id="S0dY9rQtX5_g3LYnCzjn-15" value="" style="edgeStyle=orthogonalEdgeStyle;rounded=0;orthogonalLoop=1;jettySize=auto;html=1;" edge="1" parent="1" source="S0dY9rQtX5_g3LYnCzjn-7" target="S0dY9rQtX5_g3LYnCzjn-8">
          <mxGeometry relative="1" as="geometry" />
        </mxCell>
        <mxCell id="S0dY9rQtX5_g3LYnCzjn-7" value="RES" style="strokeWidth=2;html=1;shape=mxgraph.flowchart.display;whiteSpace=wrap;" vertex="1" parent="1">
          <mxGeometry x="542" y="414" width="85" height="50" as="geometry" />
        </mxCell>
        <mxCell id="S0dY9rQtX5_g3LYnCzjn-9" style="edgeStyle=orthogonalEdgeStyle;rounded=0;orthogonalLoop=1;jettySize=auto;html=1;entryX=0;entryY=0.5;entryDx=0;entryDy=0;entryPerimeter=0;" edge="1" parent="1" source="S0dY9rQtX5_g3LYnCzjn-8" target="S0dY9rQtX5_g3LYnCzjn-5">
          <mxGeometry relative="1" as="geometry">
            <Array as="points">
              <mxPoint x="380" y="515" />
              <mxPoint x="380" y="270" />
            </Array>
          </mxGeometry>
        </mxCell>
        <mxCell id="S0dY9rQtX5_g3LYnCzjn-8" value="ADD 1 TO CONTADOR" style="rounded=1;whiteSpace=wrap;html=1;absoluteArcSize=1;arcSize=14;strokeWidth=2;" vertex="1" parent="1">
          <mxGeometry x="492" y="490" width="186" height="50" as="geometry" />
        </mxCell>
        <mxCell id="S0dY9rQtX5_g3LYnCzjn-14" style="edgeStyle=orthogonalEdgeStyle;rounded=0;orthogonalLoop=1;jettySize=auto;html=1;exitX=0.5;exitY=1;exitDx=0;exitDy=0;entryX=0.5;entryY=0;entryDx=0;entryDy=0;entryPerimeter=0;" edge="1" parent="1" source="S0dY9rQtX5_g3LYnCzjn-6" target="S0dY9rQtX5_g3LYnCzjn-7">
          <mxGeometry relative="1" as="geometry" />
        </mxCell>
        <mxCell id="S0dY9rQtX5_g3LYnCzjn-17" style="edgeStyle=orthogonalEdgeStyle;rounded=0;orthogonalLoop=1;jettySize=auto;html=1;" edge="1" parent="1" source="S0dY9rQtX5_g3LYnCzjn-5">
          <mxGeometry relative="1" as="geometry">
            <mxPoint x="640" y="590" as="targetPoint" />
            <Array as="points">
              <mxPoint x="790" y="270" />
              <mxPoint x="790" y="590" />
            </Array>
          </mxGeometry>
        </mxCell>
        <mxCell id="S0dY9rQtX5_g3LYnCzjn-18" value="F" style="edgeLabel;html=1;align=center;verticalAlign=middle;resizable=0;points=[];" vertex="1" connectable="0" parent="S0dY9rQtX5_g3LYnCzjn-17">
          <mxGeometry x="-0.7967" y="-1" relative="1" as="geometry">
            <mxPoint as="offset" />
          </mxGeometry>
        </mxCell>
      </root>
    </mxGraphModel>
  </diagram>
  <diagram id="RWtoTLFQXdhAeaM-04UN" name="100-1">
    <mxGraphModel dx="1434" dy="833" grid="1" gridSize="10" guides="1" tooltips="1" connect="1" arrows="1" fold="1" page="1" pageScale="1" pageWidth="1169" pageHeight="827" math="0" shadow="0">
      <root>
        <mxCell id="0" />
        <mxCell id="1" parent="0" />
        <mxCell id="pHNN4x8-JQMgMldaCxoe-1" style="edgeStyle=orthogonalEdgeStyle;rounded=0;orthogonalLoop=1;jettySize=auto;html=1;" edge="1" parent="1" source="pHNN4x8-JQMgMldaCxoe-2" target="pHNN4x8-JQMgMldaCxoe-5">
          <mxGeometry relative="1" as="geometry" />
        </mxCell>
        <mxCell id="pHNN4x8-JQMgMldaCxoe-2" value="INICIO" style="strokeWidth=2;html=1;shape=mxgraph.flowchart.start_1;whiteSpace=wrap;" vertex="1" parent="1">
          <mxGeometry x="532" y="20" width="106" height="40" as="geometry" />
        </mxCell>
        <mxCell id="pHNN4x8-JQMgMldaCxoe-3" value="FIM" style="strokeWidth=2;html=1;shape=mxgraph.flowchart.start_1;whiteSpace=wrap;" vertex="1" parent="1">
          <mxGeometry x="532" y="570" width="106" height="40" as="geometry" />
        </mxCell>
        <mxCell id="pHNN4x8-JQMgMldaCxoe-4" style="edgeStyle=orthogonalEdgeStyle;rounded=0;orthogonalLoop=1;jettySize=auto;html=1;" edge="1" parent="1" source="pHNN4x8-JQMgMldaCxoe-5" target="pHNN4x8-JQMgMldaCxoe-7">
          <mxGeometry relative="1" as="geometry" />
        </mxCell>
        <mxCell id="pHNN4x8-JQMgMldaCxoe-5" value="NUM" style="shape=parallelogram;html=1;strokeWidth=2;perimeter=parallelogramPerimeter;whiteSpace=wrap;rounded=1;arcSize=12;size=0.23;" vertex="1" parent="1">
          <mxGeometry x="522" y="90" width="125" height="40" as="geometry" />
        </mxCell>
        <mxCell id="pHNN4x8-JQMgMldaCxoe-6" style="edgeStyle=orthogonalEdgeStyle;rounded=0;orthogonalLoop=1;jettySize=auto;html=1;" edge="1" parent="1" source="pHNN4x8-JQMgMldaCxoe-7" target="pHNN4x8-JQMgMldaCxoe-10">
          <mxGeometry relative="1" as="geometry" />
        </mxCell>
        <mxCell id="pHNN4x8-JQMgMldaCxoe-7" value="CONTADOR = 100" style="rounded=1;whiteSpace=wrap;html=1;absoluteArcSize=1;arcSize=14;strokeWidth=2;" vertex="1" parent="1">
          <mxGeometry x="515" y="160" width="140" height="50" as="geometry" />
        </mxCell>
        <mxCell id="pHNN4x8-JQMgMldaCxoe-8" style="edgeStyle=orthogonalEdgeStyle;rounded=0;orthogonalLoop=1;jettySize=auto;html=1;" edge="1" parent="1" source="pHNN4x8-JQMgMldaCxoe-10" target="pHNN4x8-JQMgMldaCxoe-11">
          <mxGeometry relative="1" as="geometry" />
        </mxCell>
        <mxCell id="pHNN4x8-JQMgMldaCxoe-9" value="V" style="edgeLabel;html=1;align=center;verticalAlign=middle;resizable=0;points=[];" vertex="1" connectable="0" parent="pHNN4x8-JQMgMldaCxoe-8">
          <mxGeometry x="-0.7948" y="2" relative="1" as="geometry">
            <mxPoint x="-2" y="5" as="offset" />
          </mxGeometry>
        </mxCell>
        <mxCell id="pHNN4x8-JQMgMldaCxoe-10" value="CONTADOR &amp;gt;=1" style="strokeWidth=2;html=1;shape=mxgraph.flowchart.decision;whiteSpace=wrap;" vertex="1" parent="1">
          <mxGeometry x="510" y="230" width="150" height="80" as="geometry" />
        </mxCell>
        <mxCell id="pHNN4x8-JQMgMldaCxoe-11" value="RES = NUM * CONTADOR" style="rounded=1;whiteSpace=wrap;html=1;absoluteArcSize=1;arcSize=14;strokeWidth=2;" vertex="1" parent="1">
          <mxGeometry x="492" y="340" width="186" height="50" as="geometry" />
        </mxCell>
        <mxCell id="pHNN4x8-JQMgMldaCxoe-12" value="" style="edgeStyle=orthogonalEdgeStyle;rounded=0;orthogonalLoop=1;jettySize=auto;html=1;" edge="1" parent="1" source="pHNN4x8-JQMgMldaCxoe-13" target="pHNN4x8-JQMgMldaCxoe-15">
          <mxGeometry relative="1" as="geometry" />
        </mxCell>
        <mxCell id="pHNN4x8-JQMgMldaCxoe-13" value="RES" style="strokeWidth=2;html=1;shape=mxgraph.flowchart.display;whiteSpace=wrap;" vertex="1" parent="1">
          <mxGeometry x="542" y="414" width="85" height="50" as="geometry" />
        </mxCell>
        <mxCell id="pHNN4x8-JQMgMldaCxoe-14" style="edgeStyle=orthogonalEdgeStyle;rounded=0;orthogonalLoop=1;jettySize=auto;html=1;entryX=0;entryY=0.5;entryDx=0;entryDy=0;entryPerimeter=0;" edge="1" parent="1" source="pHNN4x8-JQMgMldaCxoe-15" target="pHNN4x8-JQMgMldaCxoe-10">
          <mxGeometry relative="1" as="geometry">
            <Array as="points">
              <mxPoint x="380" y="515" />
              <mxPoint x="380" y="270" />
            </Array>
          </mxGeometry>
        </mxCell>
        <mxCell id="pHNN4x8-JQMgMldaCxoe-15" value="SUBTRAIR 1 DE CONTADOR" style="rounded=1;whiteSpace=wrap;html=1;absoluteArcSize=1;arcSize=14;strokeWidth=2;" vertex="1" parent="1">
          <mxGeometry x="492" y="490" width="186" height="50" as="geometry" />
        </mxCell>
        <mxCell id="pHNN4x8-JQMgMldaCxoe-16" style="edgeStyle=orthogonalEdgeStyle;rounded=0;orthogonalLoop=1;jettySize=auto;html=1;exitX=0.5;exitY=1;exitDx=0;exitDy=0;entryX=0.5;entryY=0;entryDx=0;entryDy=0;entryPerimeter=0;" edge="1" parent="1" source="pHNN4x8-JQMgMldaCxoe-11" target="pHNN4x8-JQMgMldaCxoe-13">
          <mxGeometry relative="1" as="geometry" />
        </mxCell>
        <mxCell id="pHNN4x8-JQMgMldaCxoe-17" style="edgeStyle=orthogonalEdgeStyle;rounded=0;orthogonalLoop=1;jettySize=auto;html=1;" edge="1" parent="1" source="pHNN4x8-JQMgMldaCxoe-10">
          <mxGeometry relative="1" as="geometry">
            <mxPoint x="640" y="590" as="targetPoint" />
            <Array as="points">
              <mxPoint x="790" y="270" />
              <mxPoint x="790" y="590" />
            </Array>
          </mxGeometry>
        </mxCell>
        <mxCell id="pHNN4x8-JQMgMldaCxoe-18" value="F" style="edgeLabel;html=1;align=center;verticalAlign=middle;resizable=0;points=[];" vertex="1" connectable="0" parent="pHNN4x8-JQMgMldaCxoe-17">
          <mxGeometry x="-0.7967" y="-1" relative="1" as="geometry">
            <mxPoint as="offset" />
          </mxGeometry>
        </mxCell>
      </root>
    </mxGraphModel>
  </diagram>
  <diagram id="0GkGqeLlj3K-D5UXCkLm" name="salto 2">
    <mxGraphModel dx="1434" dy="833" grid="1" gridSize="10" guides="1" tooltips="1" connect="1" arrows="1" fold="1" page="1" pageScale="1" pageWidth="1169" pageHeight="827" math="0" shadow="0">
      <root>
        <mxCell id="0" />
        <mxCell id="1" parent="0" />
        <mxCell id="m-7cCrPiqjztIZAlP4bK-2" style="edgeStyle=orthogonalEdgeStyle;rounded=0;orthogonalLoop=1;jettySize=auto;html=1;" edge="1" parent="1" source="m-7cCrPiqjztIZAlP4bK-3" target="m-7cCrPiqjztIZAlP4bK-6">
          <mxGeometry relative="1" as="geometry" />
        </mxCell>
        <mxCell id="m-7cCrPiqjztIZAlP4bK-3" value="INICIO" style="strokeWidth=2;html=1;shape=mxgraph.flowchart.start_1;whiteSpace=wrap;" vertex="1" parent="1">
          <mxGeometry x="532" y="20" width="106" height="40" as="geometry" />
        </mxCell>
        <mxCell id="m-7cCrPiqjztIZAlP4bK-4" value="FIM" style="strokeWidth=2;html=1;shape=mxgraph.flowchart.start_1;whiteSpace=wrap;" vertex="1" parent="1">
          <mxGeometry x="532" y="570" width="106" height="40" as="geometry" />
        </mxCell>
        <mxCell id="m-7cCrPiqjztIZAlP4bK-5" style="edgeStyle=orthogonalEdgeStyle;rounded=0;orthogonalLoop=1;jettySize=auto;html=1;" edge="1" parent="1" source="m-7cCrPiqjztIZAlP4bK-6" target="m-7cCrPiqjztIZAlP4bK-8">
          <mxGeometry relative="1" as="geometry" />
        </mxCell>
        <mxCell id="m-7cCrPiqjztIZAlP4bK-6" value="NUM" style="shape=parallelogram;html=1;strokeWidth=2;perimeter=parallelogramPerimeter;whiteSpace=wrap;rounded=1;arcSize=12;size=0.23;" vertex="1" parent="1">
          <mxGeometry x="522" y="90" width="125" height="40" as="geometry" />
        </mxCell>
        <mxCell id="m-7cCrPiqjztIZAlP4bK-7" style="edgeStyle=orthogonalEdgeStyle;rounded=0;orthogonalLoop=1;jettySize=auto;html=1;" edge="1" parent="1" source="m-7cCrPiqjztIZAlP4bK-8" target="m-7cCrPiqjztIZAlP4bK-11">
          <mxGeometry relative="1" as="geometry" />
        </mxCell>
        <mxCell id="m-7cCrPiqjztIZAlP4bK-8" value="CONTADOR = 1" style="rounded=1;whiteSpace=wrap;html=1;absoluteArcSize=1;arcSize=14;strokeWidth=2;" vertex="1" parent="1">
          <mxGeometry x="515" y="160" width="140" height="50" as="geometry" />
        </mxCell>
        <mxCell id="m-7cCrPiqjztIZAlP4bK-9" style="edgeStyle=orthogonalEdgeStyle;rounded=0;orthogonalLoop=1;jettySize=auto;html=1;" edge="1" parent="1" source="m-7cCrPiqjztIZAlP4bK-11" target="m-7cCrPiqjztIZAlP4bK-12">
          <mxGeometry relative="1" as="geometry" />
        </mxCell>
        <mxCell id="m-7cCrPiqjztIZAlP4bK-10" value="V" style="edgeLabel;html=1;align=center;verticalAlign=middle;resizable=0;points=[];" vertex="1" connectable="0" parent="m-7cCrPiqjztIZAlP4bK-9">
          <mxGeometry x="-0.7948" y="2" relative="1" as="geometry">
            <mxPoint x="-2" y="5" as="offset" />
          </mxGeometry>
        </mxCell>
        <mxCell id="m-7cCrPiqjztIZAlP4bK-11" value="CONTADOR &amp;lt;= 100" style="strokeWidth=2;html=1;shape=mxgraph.flowchart.decision;whiteSpace=wrap;" vertex="1" parent="1">
          <mxGeometry x="510" y="230" width="150" height="80" as="geometry" />
        </mxCell>
        <mxCell id="m-7cCrPiqjztIZAlP4bK-12" value="RES = NUM * CONTADOR" style="rounded=1;whiteSpace=wrap;html=1;absoluteArcSize=1;arcSize=14;strokeWidth=2;" vertex="1" parent="1">
          <mxGeometry x="492" y="340" width="186" height="50" as="geometry" />
        </mxCell>
        <mxCell id="m-7cCrPiqjztIZAlP4bK-13" value="" style="edgeStyle=orthogonalEdgeStyle;rounded=0;orthogonalLoop=1;jettySize=auto;html=1;" edge="1" parent="1" source="m-7cCrPiqjztIZAlP4bK-14" target="m-7cCrPiqjztIZAlP4bK-16">
          <mxGeometry relative="1" as="geometry" />
        </mxCell>
        <mxCell id="m-7cCrPiqjztIZAlP4bK-14" value="RES" style="strokeWidth=2;html=1;shape=mxgraph.flowchart.display;whiteSpace=wrap;" vertex="1" parent="1">
          <mxGeometry x="542" y="414" width="85" height="50" as="geometry" />
        </mxCell>
        <mxCell id="m-7cCrPiqjztIZAlP4bK-15" style="edgeStyle=orthogonalEdgeStyle;rounded=0;orthogonalLoop=1;jettySize=auto;html=1;entryX=0;entryY=0.5;entryDx=0;entryDy=0;entryPerimeter=0;" edge="1" parent="1" source="m-7cCrPiqjztIZAlP4bK-16" target="m-7cCrPiqjztIZAlP4bK-11">
          <mxGeometry relative="1" as="geometry">
            <Array as="points">
              <mxPoint x="380" y="515" />
              <mxPoint x="380" y="270" />
            </Array>
          </mxGeometry>
        </mxCell>
        <mxCell id="m-7cCrPiqjztIZAlP4bK-16" value="ADD 2 TO CONTADOR" style="rounded=1;whiteSpace=wrap;html=1;absoluteArcSize=1;arcSize=14;strokeWidth=2;" vertex="1" parent="1">
          <mxGeometry x="492" y="490" width="186" height="50" as="geometry" />
        </mxCell>
        <mxCell id="m-7cCrPiqjztIZAlP4bK-17" style="edgeStyle=orthogonalEdgeStyle;rounded=0;orthogonalLoop=1;jettySize=auto;html=1;exitX=0.5;exitY=1;exitDx=0;exitDy=0;entryX=0.5;entryY=0;entryDx=0;entryDy=0;entryPerimeter=0;" edge="1" parent="1" source="m-7cCrPiqjztIZAlP4bK-12" target="m-7cCrPiqjztIZAlP4bK-14">
          <mxGeometry relative="1" as="geometry" />
        </mxCell>
        <mxCell id="m-7cCrPiqjztIZAlP4bK-18" style="edgeStyle=orthogonalEdgeStyle;rounded=0;orthogonalLoop=1;jettySize=auto;html=1;" edge="1" parent="1" source="m-7cCrPiqjztIZAlP4bK-11">
          <mxGeometry relative="1" as="geometry">
            <mxPoint x="640" y="590" as="targetPoint" />
            <Array as="points">
              <mxPoint x="790" y="270" />
              <mxPoint x="790" y="590" />
            </Array>
          </mxGeometry>
        </mxCell>
        <mxCell id="m-7cCrPiqjztIZAlP4bK-19" value="F" style="edgeLabel;html=1;align=center;verticalAlign=middle;resizable=0;points=[];" vertex="1" connectable="0" parent="m-7cCrPiqjztIZAlP4bK-18">
          <mxGeometry x="-0.7967" y="-1" relative="1" as="geometry">
            <mxPoint as="offset" />
          </mxGeometry>
        </mxCell>
      </root>
    </mxGraphModel>
  </diagram>
</mxfile>
